# xmcd
#
# Track frame offsets:
# 151
# 13441
# 26075
# 41130
# 52813
# 63749
# 75898
# 86110
# 94384
# 107165
# 119199
# 132139
# 145760
# 159624
# 168135
# 177553
# 186527
#
# Disc length: 2677 seconds
#
#
# Revision: 2
# Processed by: cddbd v1.5.1PL2 Copyright (c) Steve Scherf et al.
# Submitted via: FreeRIP 2.945 
#
DISCID=f60a7311
DTITLE=Willie Nelson - Night Life
DYEAR=2002
DGENRE=Country
TTITLE0=You'll Always Have Someone
TTITLE1=She's Not For You
TTITLE2=And So Will You Will Be My Lover
TTITLE3=December Days
TTITLE4=Go Away
TTITLE5=Night Life
TTITLE6=Pride Wins Again
TTITLE7=You Wouldn't Cross The Street To Say Goodbye
TTITLE8=Any Old Arms Won't Do
TTITLE9=End Of Understanding
TTITLE10=I Just Don't Understand
TTITLE11=If You Can't Undo The Wrong Undo The Right
TTITLE12=No Tomorrow In Sight
TTITLE13=Slow Down Old World
TTITLE14=One Step Beyond
TTITLE15=Waiting Time
TTITLE16=What Can You Do To Me Now
EXTD=Time Music
EXTT0=
EXTT1=
EXTT2=
EXTT3=
EXTT4=
EXTT5=
EXTT6=
EXTT7=
EXTT8=
EXTT9=
EXTT10=
EXTT11=
EXTT12=
EXTT13=
EXTT14=
EXTT15=
EXTT16=
PLAYORDER=
